<svg xmlns="http://www.w3.org/2000/svg" width="128" height="128" viewBox="0 0 128 128" role="img" aria-labelledby="title desc">
    <title id="title">Commit Arcade Chrome Web Store icon</title>
    <desc id="desc">A simple play symbol built from contribution graph tiles.</desc>
    <rect width="128" height="128" rx="28" fill="#0d1117"/>
    <rect x="18" y="18" width="92" height="92" rx="20" fill="#161b22" stroke="#30363d" stroke-width="4"/>
    <g fill="#30363d">
        <rect x="36" y="30" width="10" height="10" rx="2"/>
        <rect x="36" y="46" width="10" height="10" rx="2"/>
        <rect x="36" y="62" width="10" height="10" rx="2"/>
        <rect x="36" y="78" width="10" height="10" rx="2"/>
        <rect x="52" y="38" width="10" height="10" rx="2"/>
        <rect x="52" y="54" width="10" height="10" rx="2"/>
        <rect x="52" y="70" width="10" height="10" rx="2"/>
        <rect x="68" y="46" width="10" height="10" rx="2"/>
        <rect x="68" y="62" width="10" height="10" rx="2"/>
        <rect x="84" y="54" width="10" height="10" rx="2"/>
    </g>
    <g fill="#3fb950">
        <rect x="36" y="30" width="10" height="10" rx="2"/>
        <rect x="36" y="46" width="10" height="10" rx="2"/>
        <rect x="36" y="62" width="10" height="10" rx="2"/>
        <rect x="36" y="78" width="10" height="10" rx="2"/>
    </g>
    <g fill="#58a6ff">
        <rect x="52" y="38" width="10" height="10" rx="2"/>
        <rect x="52" y="54" width="10" height="10" rx="2"/>
        <rect x="52" y="70" width="10" height="10" rx="2"/>
    </g>
    <g fill="#f0f6fc">
        <rect x="68" y="46" width="10" height="10" rx="2"/>
        <rect x="68" y="62" width="10" height="10" rx="2"/>
        <rect x="84" y="54" width="10" height="10" rx="2"/>
    </g>
    <rect x="36" y="96" width="58" height="4" rx="2" fill="#30363d"/>
</svg>
